/* XPM */
static char *_1739abce3c240cdb8075341965a9fed516SEyIj38CpLICg[] = {
/* columns rows colors chars-per-pixel */
"64 64 179 2 ",
"   c None",
".  c #68182B",
"X  c #721B2F",
"o  c #6C1E31",
"O  c #741A31",
"+  c #7D1B32",
"@  c #70212B",
"#  c #6F2335",
"$  c #702537",
"%  c #712638",
"&  c #732A3C",
"*  c #7F2038",
"=  c #772F40",
"-  c #773041",
";  c #7A3344",
":  c #7D3B4B",
">  c #8C1B34",
",  c #871D35",
"<  c #961C3A",
"1  c #9D1C3A",
"2  c #951F37",
"3  c #A41B3D",
"4  c #89352C",
"5  c #913B2B",
"6  c #8C2437",
"7  c #982738",
"8  c #8D3330",
"9  c #903331",
"0  c #954A2B",
"q  c #9A4E2A",
"w  c #93442B",
"e  c #9B552E",
"r  c #A25427",
"t  c #A6652C",
"y  c #AA6C2C",
"u  c #B26227",
"i  c #B57529",
"p  c #C57A26",
"a  c #A81A40",
"s  c #BA1B44",
"d  c #B01A41",
"f  c #813E4E",
"g  c #962845",
"h  c #AC2243",
"j  c #A72141",
"k  c #BB2448",
"l  c #B12245",
"z  c #AE3253",
"x  c #BE385C",
"c  c #C21945",
"v  c #CE1949",
"b  c #C81C49",
"n  c #DD174D",
"m  c #D21B4A",
"M  c #DB194C",
"N  c #EA0F4D",
"B  c #E3164E",
"V  c #EB134F",
"C  c #E21A4F",
"Z  c #ED1550",
"A  c #ED1D54",
"S  c #F21B54",
"D  c #F01752",
"F  c #C4254C",
"G  c #CD264E",
"H  c #CF2850",
"J  c #D52B54",
"K  c #DD2A55",
"L  c #C33A5F",
"P  c #DD315D",
"I  c #E82757",
"U  c #F42057",
"Y  c #F72259",
"T  c #FA265B",
"R  c #F72C5D",
"E  c #FD2C5E",
"W  c #E1335F",
"Q  c #CC3E67",
"!  c #FF2E60",
"~  c #E43762",
"^  c #EB3C6B",
"/  c #EA3665",
"(  c #FF3164",
")  c #FF3568",
"_  c #FF3A6C",
"`  c #F53B6C",
"'  c #FF3D70",
"]  c #8B4E5C",
"[  c #834251",
"{  c #8A515F",
"}  c #8E5663",
"|  c #915764",
" . c #945D6A",
".. c #9E6B77",
"X. c #976772",
"o. c #A1707C",
"O. c #D4426C",
"+. c #E9426F",
"@. c #EB4372",
"#. c #E14975",
"$. c #EB4C7B",
"%. c #EA4A77",
"&. c #FF4779",
"*. c #F24A79",
"=. c #F84476",
"-. c #D98825",
";. c #DB9A24",
":. c #CC992C",
">. c #E08F24",
",. c #E99624",
"<. c #F39E22",
"1. c #DBAC2E",
"2. c #E7AA24",
"3. c #E6A824",
"4. c #F5A223",
"5. c #FDA522",
"6. c #FFAB22",
"7. c #E7B62A",
"8. c #FEB422",
"9. c #F5BB23",
"0. c #FFBB22",
"q. c #EDC72F",
"w. c #EEC92F",
"e. c #FFC522",
"r. c #FECA25",
"t. c #F5C528",
"y. c #FDD22A",
"u. c #FCD92F",
"i. c #FBDC32",
"p. c #F4D130",
"a. c #FBE033",
"s. c #A77984",
"d. c #A47480",
"f. c #FF4D80",
"g. c #FD5588",
"h. c #FF5F91",
"j. c #FF6396",
"k. c #FF6599",
"l. c #A7838B",
"z. c #AD8C95",
"x. c #B18892",
"c. c #AE9399",
"v. c #B3939A",
"b. c #B6989F",
"n. c #B59DA3",
"m. c #BB9CA3",
"M. c #BAA5AA",
"N. c #BCA9AD",
"B. c #BDAEB1",
"V. c #C3A3AB",
"C. c #C1A9AF",
"Z. c #C3ADB3",
"A. c #CAADB4",
"S. c #C2B1B5",
"D. c #C8B9BD",
"F. c #D0B7BC",
"G. c #CDBEC1",
"H. c #D3BCC1",
"J. c #CEC7C9",
"K. c #CDC3C5",
"L. c #D5C2C6",
"P. c #D9C5CA",
"I. c #D4CBCD",
"U. c #DCC9CE",
"Y. c #D3C7CA",
"T. c #DECCD0",
"R. c #DCDCDC",
"E. c #DBD5D6",
"W. c #E1D1D5",
"Q. c #E7DADD",
"!. c #E8DDDF",
"~. c #E5D7DA",
"^. c #E5E4E5",
"/. c #EDE3E5",
"(. c #EFE7E9",
"). c #F2EAEC",
"_. c #F6F1F2",
"`. c #F9F6F7",
"'. c #FFFFFF",
/* pixels */
"                                                                                                                                ",
"                                                                                                                                ",
"                                                                                                                                ",
"                                                                                                                                ",
"                                                                                                                                ",
"                                                                                                                                ",
"                                                                                                                                ",
"                                                                                                                                ",
"                                                    '.'.'.'.'.'.'.'.'.'.'.                                                      ",
"                                              '.'.'.'.'.'.'.'.'.'.'.'.'.'.'.'.'.'.                                              ",
"                                          '.'.'.'.'.'.`./.W.W.W.W.!.).'.'.'.'.'.'.'.'.                                          ",
"                                        '.'.'.'.U.o.; . . . . . . . . . = ] s.F.'.'.'.'.                                        ",
"                                        '.'.).| . &  .z.m.Z.Z.Z.Z.Z.n.l.X.] & . [ (.'.'.                                        ",
"                                      '.'._.; % b.^.^.^.^.^.^.^.^.^.^.^.^.^.^.C.& f '.'.'.                                      ",
"                                    '.'.'.A.. L.R.K.S.M.n.c.c.c.c.n.n.M.S.D.J.R.N.. T.'.'.                                      ",
"                                    '.'.'.x.. = . . . . . . . . . . . . . . . o : . V.'.'.'.                                    ",
"                                  '.'.'.m.. * L #.+.^ / R E X 3.e.e.9.7.2.;.@ O > X # H.'.'.'.                                  ",
"                                  '.'.T.. Q k.h._ ! ! ! ! K q e.e.e.e.e.e.p < R ! ` z $ (.'.'.                                  ",
"                                  '.'.x.O j.j.) ! ! ! ! ! s ;.e.e.e.e.e.t.6 R ! ! ! g.. m.'.'.                                  ",
"                                  '.'...g k.&.! ! ! ! ! T > 8.e.e.e.e.r.1.b ! ! ! ! f.6 ..'.'.                                  ",
"                                  '.'.| z j.( ! ! ! ! ! U w 8.e.e.e.e.u.t U ! ! ! ! &.z ] '.'.'.                                ",
"                                  '.'.[ x g.! ! ! ! ! ! A r 8.e.e.e.e.i.9 Y ! ! ! ! _ L ; '.'.'.                                ",
"                                  '.'.- Q &.! ! ! ! ! ! S 5 6.e.e.e.e.a.8 S ! ! ! ! _ O.$ '.'.'.                                ",
"                                '.'.'.# O.' ! ! ! ! ! ! Y 1 5.0.e.e.e.i.y V ! ! ! ! ) #.. '.'.'.                                ",
"                                '.'.'.. #.) ! ! ! ! ! ! E n p 6.e.e.e.u.7.v Y ! ! ! ( $.. _.'.'.                                ",
"                                '.'._.. $.( ! ! ! ! ! ! ! S 1 4.0.e.e.r.a.0 V E ! ! ! $.. /.'.'.                                ",
"                                '.'.(.. $.! ! ! ! ! ! ! ! T V 5 5.e.e.e.y.p.1 S ! ! ! $.. ~.'.'.                                ",
"                                '.'.!.. %.! ! ! ! ! ! ! ! ! Z v -.8.e.e.e.i.1.c Y ! ! $.. T.'.'.                                ",
"                                '.'.W.. %.! ! ! ! ! ! ! ! ! Y V 6 5.e.e.e.r.i.t n ! ! $.. U.'.'.                                ",
"                                '.'.U.. @.! ! ! ! ! ! ! ! ! ! V m -.8.e.e.e.y.i.> Y ! *.. P.'.'.                                ",
"                                '.'.U.. @.! ! ! ! ! ! ! ! ! ! S V q 6.e.e.e.e.i.i C ! *.. P.'.'.                                ",
"                                '.'.P.. +.! ! ! ! ! ! ! ! ! ! T N < 5.e.e.e.e.y.q.c E *.. L.'.'.                                ",
"                                '.'.P.. ^ ! ! ! ! ! ! ! ! ! ! ! V s <.0.e.e.e.r.i.3 U @.. L.'.'.                                ",
"                                '.'.P.. ^ ! ! ! ! ! ! ! ! ! ! ! D m ,.0.e.e.e.e.a., S @.. H.'.'.                                ",
"                                '.'.L.. / ! ! ! ! ! ! ! ! ! ! ! S n -.8.e.e.e.e.i., D ^ . P.'.'.                                ",
"                                '.'.L.. ~ ! ! ! ! ! ! ! ! ! ! ! S n -.8.e.e.e.e.i.> D ^ . U.'.'.                                ",
"                                '.'.U.. W ! ! ! ! ! ! ! ! ! ! ! D M >.0.e.e.e.e.i.3 D ~ . W.'.'.                                ",
"                                '.'.W.. P ! ! ! ! ! ! ! ! ! ! ! V b ,.0.e.e.e.r.w.c S P . Q.'.'.                                ",
"                                '.'.Q.. K ! ! ! ! ! ! ! ! ! ! E N a 5.e.e.e.e.y.:.B Y J . /.'.'.                                ",
"                                '.'./.. H ! ! ! ! ! ! ! ! ! ! Y V 8 6.e.e.e.e.u.w V E G . ).'.'.                                ",
"                                '.'.).. F ! ! ! ! ! ! ! ! ! ! D B p 0.e.e.e.e.q.s D ! F . `.'.'.                                ",
"                                '.'._.. k ! ! ! ! ! ! ! ! ! E V 3 4.e.e.e.e.y.t V Y ! k % '.'.'.                                ",
"                                '.'.'.o l ! ! ! ! ! ! ! ! ! S B u 0.e.e.e.e.7.s S ! ! h f '.'.'.                                ",
"                                '.'.'.- j ! ! ! ! ! ! ! ! T V 2 4.e.e.e.e.t.9 Z E ! ! 7 } '.'.                                  ",
"                                  '.'.] 3 ! ! ! ! ! ! ! E V v p e.e.e.e.t.e C E ! ! ! , ..'.'.                                  ",
"                                  '.'.d.> S E ! ! ! ! T Z V 5 0.e.e.e.9.q m E ! ! ! R . v.'.'.                                  ",
"                                  '.'.A.. B V S Y U D N V < ;.e.e.e.3.4 G ! ! ! ! ! h . U.'.'.                                  ",
"                                  '.'.'.| . s M B V V V d 0 e.9.2.i . l I I J F h + . ..'.'.'.                                  ",
"                                    '.'.`. .. . . . . . . . . . . . . . . . . . . . s.'.'.'.                                    ",
"                                    '.'.'.V.. G.I.G.S.M.v.v.v.v.v.v.v.m.Z.D.Y.E.m.. T.'.'.'.                                    ",
"                                      '.'._.% { J.R.^.^.^.^.^.^.^.^.^.^.^.^.R.Y.: - `.'.'.                                      ",
"                                        '.'.P.& . } l.n.N.B.N.B.B.B.B.B.M.z.X.. - T.'.'.                                        ",
"                                        '.'.'._.m. .: $ . . . . . . . . o : | m.).'.'.'.                                        ",
"                                          '.'.'.'.'.'.'.`._._._._.(.).`.'.'.'.'.'.'.'.                                          ",
"                                              '.'.'.'.'.'.'.'.'.'.'.'.'.'.'.'.'.'.'.                                            ",
"                                                    '.'.'.'.'.'.'.'.'.'.'.'.'.                                                  ",
"                                                                                                                                ",
"                                                                                                                                ",
"                                                                                                                                ",
"                                                                                                                                ",
"                                                                                                                                ",
"                                                                                                                                ",
"                                                                                                                                ",
"                                                                                                                                "
};
