/* XPM */
static char *_47f1cf94808499fc085c7ff961ed8dfMWvSmzwiLRNw6YxR[] = {
/* columns rows colors chars-per-pixel */
"64 64 2 1 ",
"  c None",
". c white",
/* pixels */
"              ....................................              ",
"              ....................................              ",
"              ....................................              ",
"              ....................................              ",
"              ....                            ....              ",
"              ....                         .. ....              ",
"              ....                   ........ ....              ",
"              ....            ............... ....              ",
"              ....       .................... ....              ",
"              ....       .................... ....              ",
"              ....       .................... ....              ",
"              ....       .................... ....              ",
"              ....       .................... ....              ",
"              ....       .................... ....              ",
"              ....       .................... ....              ",
"              ....       .................... ....              ",
"              ....       .................... ....              ",
"              ....       .................... ....              ",
"              ....       .................... ....              ",
"              ....       .................... ....              ",
"              ....       .................... ....              ",
"              ....       .................... ....              ",
"              ....       .................... ....              ",
"              ....       .................... ....              ",
"              ....       .................... ....              ",
"              ....       .................... ....              ",
"              ....       .................... ....              ",
"              ....       .................... ....              ",
"              ....       .................... ....              ",
"              ....       .................... ....              ",
"              ....       .................... ....              ",
"              ....       .................... ....              ",
"              ....       .................... ....              ",
"              ....       .................... ....              ",
"              ....       .................... ....              ",
"              ....       ..... .............. ....              ",
"              ....       ....   ............. ....              ",
"              ....       ....   ............. ....              ",
"              ....       ..... .............. ....              ",
"              ....       .................... ....              ",
"              ....       .................... ....              ",
"              ....       .................... ....              ",
"              ....       .................... ....              ",
"              ....       .................... ....              ",
"              ....       .................... ....              ",
"              ....       .................... ....              ",
"              ....       .................... ....              ",
"              ....       .................... ....              ",
"              ....       .................... ....              ",
"              ....       .................... ....              ",
"              ....       .................... ....              ",
"              ....       .................... ....              ",
"              ....       .................... ....              ",
"              ....       .................... ....              ",
"              ....       .................... ....              ",
"              ....       .................... ....              ",
"              ....       .................... ....              ",
"                         ...................                    ",
"                         .................                      ",
"                         ..............                         ",
"                         ...........                            ",
"                         ........                               ",
"                         .....                                  ",
"                         .                                      "
};
