/* XPM */
static char *_eaa39b64a5941ca9010825699f9a0e3Ha90E0hI7SngJeO6[] = {
/* columns rows colors chars-per-pixel */
"64 64 142 2 ",
"   c None",
".  c #000000",
"X  c #090502",
"o  c #0B0905",
"O  c #070A0B",
"+  c #0C0C0C",
"@  c #110D08",
"#  c #15110D",
"$  c #1B140E",
"%  c #1F180F",
"&  c #0B0F10",
"*  c #0C1314",
"=  c #131313",
"-  c #101618",
";  c #111B1C",
":  c #1C1C1C",
">  c #2B1205",
",  c #311204",
"<  c #381706",
"1  c #3A1807",
"2  c #241C13",
"3  c #2A2115",
"4  c #26221C",
"5  c #2C261D",
"6  c #2E291E",
"7  c #33281D",
"8  c #3C2F1F",
"9  c #162224",
"0  c #192527",
"q  c #192528",
"w  c #1C2B2D",
"e  c #1F3134",
"r  c gray14",
"t  c #2D2D2D",
"y  c #322C21",
"u  c #213336",
"i  c #441D08",
"p  c #531F05",
"a  c #57350A",
"s  c #58360B",
"d  c #5C390F",
"f  c #5D3B11",
"g  c #692807",
"h  c #692C0D",
"j  c #732B09",
"k  c #603E14",
"l  c #433422",
"z  c #4F3D28",
"x  c #4A3A25",
"c  c #513F29",
"v  c #634116",
"b  c #66441A",
"n  c #6B481E",
"m  c #5C472F",
"M  c #5E482F",
"N  c #514233",
"B  c #6E4C22",
"V  c #78562C",
"C  c #7B592F",
"Z  c #624C32",
"A  c #7C5930",
"S  c #715639",
"D  c #73593B",
"F  c #7A5D3E",
"G  c #283D42",
"H  c #3F3840",
"J  c #2B4146",
"K  c #2E464A",
"L  c #30484C",
"P  c #324D53",
"I  c #355156",
"U  c #37565B",
"Y  c #38575B",
"T  c #3A585E",
"R  c #3C5E64",
"E  c #4B4B4B",
"W  c #565656",
"Q  c #5F5F5F",
"!  c #625A50",
"~  c #696156",
"^  c #726A5E",
"/  c #42656B",
"(  c #42696D",
")  c #476C73",
"_  c #4A7177",
"`  c #4C767D",
"'  c #6D6D6D",
"]  c #7F7568",
"[  c #91370B",
"{  c #883910",
"}  c #953E13",
"|  c #9C4213",
" . c #AF4915",
".. c #A64514",
"X. c #BB4E17",
"o. c #B54B16",
"O. c #805D34",
"+. c #836037",
"@. c #87653B",
"#. c #C75418",
"$. c #CA5619",
"%. c #D0571A",
"&. c #D95B1B",
"*. c #E25E1C",
"=. c #E5601C",
"-. c #856643",
";. c #8C6A43",
":. c #8D6C48",
">. c #926F46",
",. c #95734B",
"<. c #98754D",
"1. c #9A7750",
"2. c #9E7F5A",
"3. c #527D84",
"4. c #5C8D95",
"5. c #5F929B",
"6. c #60949D",
"7. c #659BA4",
"8. c #679FA8",
"9. c #6AA3AD",
"0. c #6CA7B1",
"q. c #6EABB5",
"w. c #71AEB9",
"e. c #74B3BE",
"r. c #75B5C0",
"t. c #9E9282",
"y. c gray58",
"u. c #A49686",
"i. c #A59887",
"p. c #B29C82",
"a. c #BFAF9C",
"s. c #B5A694",
"d. c #BFB09D",
"f. c gray65",
"g. c #BCBCBC",
"h. c #C0B09D",
"j. c #C6C6C6",
"k. c #CECECE",
"l. c #D8D8D8",
"z. c #EBEBEB",
"x. c #F3F3F3",
"c. c #FFFFFF",
/* pixels */
"                                                      . . + Q j.x.c.c.c.c.x.g.. . . .                                           ",
"                                              . c.c.c.c.c.c.c.c.c.c.c.c.c.c.c.c.c.c.1 =.=. ..                                   ",
"                                        . . c.c.c.c.c.c.c.c.c.c.c.c.c.c.c.c.c.c.c.c.c.+ =.=.=..                                 ",
"                        . 2 2 .       i > c.c.c.c.c.c.c.c.c.c.c.c.c.c.c.c.c.c.c.c.c.c.c.t =.=.=..                               ",
"                    . <.<.<.<.<.<.. | =.c.c.c.c.c.c.c.c.c.c.c.c.c.c.c.c.c.c.c.c.c.c.c.c.c.. =.=.X                               ",
"                  . <.<.<.<.<.<.<.. =.. c.c.c.c.c.c.c.c.c.c.c.c.c.c.c.c.c.c.c.c.c.c.c.c.c.c.=.=.=.                              ",
"                  <.<.<.<.d <.s <.=.=.z.c.c.c.c.c.c.c.c.c.c.c.c.c.c.c.c.c.c.c.c.c.c.c.c.c.c.1 =.=.                              ",
"                . <.s <.<.s <.f F =.=.c.c.c.c.c.c.c.c.c.c.c.c.c.c.c.c.c.c.c.c.c.c.c.c.c.c.c.. =.=..                             ",
"                -.<.d <.<.s <.B @ =.> c.c.c.c.c.c.c.c.c.c.c.c.c.c.c.c.c.c.c.c.c.c.c.c.c.c.c.z.=.=..                             ",
"                <.<.b <.<.<.<.<.. =.. c.c.c.c.c.c.c.c.c.+ . { $.X.> . y.c.c.c.c.c.c.c.c.c.c.c.=.=..                             ",
"                <.<.<.<.<.<.<.<.. =.. c.c.c.c.c.c.: &.=.=.=.=.=.=.=.=.=.=.h E c.c.c.c.c.c.c.c.=.=..                             ",
"                -.o . y y y y y . =.. c.c.c.c.c.#.=.=.=.=.=.=.=.=.=.=.=.=.=.=.=.. c.c.c.c.c.c.&.=..                             ",
"                X y y y y y y y . =.. c.c.c.= =.=.=.=.=.=.} , [ [ [ . *.=.=.=.=.=.&.k.c.c.c.c.h =..                             ",
"                . y y y y y y y . =.. c.c.+ =.=.=.=.=.=.. [ [ [ [ [ [ [ . =.=.=.=.=.=.. c.c.c.X =..                             ",
"                . y y X . # :.<.. =.X c.f.=.=.=.=.=.=.. [ [ [ [ [ [ [ [ [ p =.=.=.=.=.=.< c.c.. =..                             ",
"                . ,.<.<.<.<.<.<.. =...c.=.=.=.=.=.=.> [ [ [ [ [ [ [ [ [ [ [ j =.=.=.=.=.=.%.c.X =..                             ",
"                . <.<.<.<.<.<.+.. =.=.. =.=.=.=.=.&.[ [ [ [ [ [ [ [ [ [ [ [ [ g =.=.=.=.=.=.$.W =..                             ",
"                  <.V <.<.<.<.<.@ =.*.=.=.=.=.=.=.. . . . . . . . . . . . . . . . =.=.=.=.=.=.X =..   . 5 .                     ",
"                  <.s <.<.k <.<.D =.. =.=.=.=.=.5 N N N N N y y h.X y 7 N N N N N . =.=.=.=.=.*.<.<.<.<.<.<.                    ",
"                  <.b ,.x M . . <.. *.=.=.=.=.. N N N N N N N y 6 y N N N N N N N N N o.=.=.=.c <.. . . <..                     ",
"                  F <.. <.. . <.<.. -.=.=.=.. N N N N N N N N . y 2 N N N N N N N N N X y <.<.<.. z <.<.X                       ",
"                  $ <.:.X <.. . <.<.<.<.y c.c.c.c.c.. ' c.c.c.= y x.c.c.c.c.. c.c.c.c.c.y <.<.<.<.<.<..                         ",
"                  . y y y o S <.<.<.<.<.y . c.c.c.c.c.c.c.c.c.$ y . c.c.c.c.c.c.c.c.c.r y <.@.<.m .                             ",
"                  . y y y y y y . 3 <.<.. y . c.c.c.c.c.c.c.. y . y c.c.c.c.c.c.c.c.c.y . <.O.<.                                ",
"                  . y y y y y y y . <.<.<.. y 6 l.c.c.c.W y y o <.. y . c.c.c.c.c.= y . <.<.V <.                                ",
"                    y y 6 . . . . . <.<.s <.<.. 4 y y y 5 . ,.<.<.<.<.+ y y y y y y 3 <.>.<.<.<.                                ",
"                    M <.<.<.<.<.<.% <.<.a <.<.<.1.<.,.<.<.<.<.. . . <.<.<.<.,.<.,.<.<.<.>.<.<.<.                                ",
"                    <.<.<.<.<.<.>.c <.<.d p.a.a.a.a.a.a.<.<.<.. . . <.<.<.<.p.a.a.a.a.a.,.<.<.<.                                ",
"                    ,.f <.<.<.<.v :.<.<.<.a.a.h.] i.a.a.a.a.<.. . . <.a.a.a.a.a.a.a.a.a.a.<.<.<.                                ",
"                    $ v <.<.;.<.s <.<.<.<.a.a.a.a.a.a.a.+ a.a.a.a.a.a.a.a.~ + + s.a.a.a.a.<.<.<.                                ",
"                    . B <.<.n <.s <.<.<.<.a.a.a.a.a.a.a.a.a.+ a.a.a.a.+ a.a.a.a.a.s.! a.a.<.v <.                                ",
"                    . <.<.<.<.<.<.<.<.<.<.a.a.a.a.a.a.a.a.a.a.a.h.a.a.a.a.a.a.a.a.a.a.a.a.<.s <.  . . .                         ",
"                      <.<.<.<.<.<.<.<.<.<.a.a.a.a.a.a.a.a.a.a.a.a.a.a.a.a.a.a.a.a.a.a.a.a.<.s <.. e.e.e.e.e.. .                 ",
"                      # . e.e.e.e.. ,.<.<.a.a.a.a.a.a.a.a.a.a.a.a.a.a.a.a.a.a.a.a.a.a.a.a.2.s $ e.e..       / = H               ",
"                . H ` e.9.c <.<.O U X <.<.a.a.a.a.a.a.a.a.a.a.a.a.a.a.a.a.a.a.a.a.a.a.a.a.p.<.. e.e.e.e.e.e.0.( e.e..           ",
"              . e.e.. # X e.e.e.e.e.. 2 <.a.a.a.a.a.a.a.a.a.a.a.a.a.a.a.a.a.a.a.a.a.a.a.a.d.<.* e.e.e.e.e.e.e.e.e.e..           ",
"            . X 8.e.e.e.e.e.e.e.e.e.w.t . a.a.a.a.a.a.a.a.a.a.a.a.a.a.a.a.a.a.a.a.a.a.a.a.a.= e.e.e.e.e.e.e.e.e.e.e.e..         ",
"            . T e.e.e.e.e.e.e.e.e.e.e.t t . a.a.a.a.a.a.a.a.a.a.a.a.a.a.a.a.a.a.a.a.a.a.a.t t e.e.e.e.e.e.e.e.e.. . . . .       ",
"                  . e.e.e.e.e.e.e.e.e.. t t . a.a.a.a.a.a.a.a.a.a.a.a.a.a.a.a.a.a.a.a.h.t t X e.e.e.e.e.e.e.e.e.`               ",
"                  . e.e.e.e.e.e.e.e.e.. r t t : a.a.a.a.a.a.a.a.a.a.a.a.a.a.a.a.a.a.^ t t t . e.e.e.e.e.e.e.e.e.e.e..           ",
"                : 0.e.e.e.e.e.e.e.e.e.4.t + t t t h.a.a.a.a.a.a.a.a.a.a.a.a.a.a.a.4 t t t . X e.e.e.e.e.e.e.e.e.. t t           ",
"              . 6.e.e.e.e.e.e.e.e.e.e.e.t t . t t t t.a.a.a.a.a.a.a.a.a.a.a.a.a.. t t t . t w.e.e.e.e.e.e.e.e.e.e.e.X r         ",
"            t t t t e.e.e.e.e.e.e.e.e.e.: t t . t t t # a.a.a.a.a.a.a.a.a.a.a.. t t t . t t e.. e.7.e.e.e.e.e.e.. t t t .       ",
"          t t t t . . e.G 6.e.e.e.e.r.q.. t t t . t t t . a.a.a.a.a.a.a.a.a.. t t t + t t r I * . . ; / 0.r.e.e.8.. t t t .     ",
"        t t t . e.e.e.e.e.e.e.e.e.e.e.9.. t t t t = t t t . a.a.a.a.a.a.a.+ t t t t t t t . O . . K 8.e.e.e.e.e.X t t t t =     ",
"      = t t t t t X e.9 e.e.e.e.e.e.e.O L t t t t t t t t t X a.a.a.a.a.t t t t t t t t t . w.e.e.e.e.e.e.e.* t t t t t t t     ",
"    . t t t t t t . e.R e.e.e.e.e.e.e.. e.t t t t t t t t t t r a.a.d.t t t : t t t t t t O e.e.e.e.e.. e.e.) t t t t t t t .   ",
"    t t t t t t . . * . w Y e.. e._ r.e.e.t t t t t t t t r t t t u.t t t X t t t t t t t 7.e.T e.e.R e.. r.q.  t t t t t .     ",
"    . t t t t t .   . 9 e.e.e.. e.e.e.e.e.: t t t t t t t t + t t t t t . t t t t t t t t e.e.J e.e.e.e.e.e.e.  . t t . <..     ",
"    . <.. t t :   . I e e.e.e.e.e.e.e.e.e.. t t t t t t t t t . t t t . t t t t t t t t t e.e.w e.e.e.e.e.e.e.    . ,.s <..     ",
"    . <.,.<..         e e.e.e.e.e.e.e.e.e.. t t t t t t t t t t . t : t t t t t t t t t r e.e.* e.e.e.e.e.e.e.      . <.<.D     ",
"    <.@.<.<.          K e.e.e.e.e.e.q.e.e.. t t t t t t t t t t t t t t t t t t t t t t X e.e.e.0 e.e.e.e.q e.      . <.v <.    ",
"    <.<.<.<.          e.9.e.e.e.e.4.e.e.e.- t t t t t t t t t t t t t t t t t t t t t t . e.e.e.e.e.O q.e.e.e.        <.<.<..   ",
"  . <.<.<.X           e.e.e.e.. * ) e.e.e.3.t t t t t t t t t t t t t t t t t t t t t t . e.e.e.e.6.e.I e.e.e.        <.<.<..   ",
"  # <.<.<..           e.e.e.e.w.e.& e.e.e.e.t t t t t t t t t t t t t t t t t t t t t t . e.e.e.e.e.e.P e.e.e.        z <.<.3   ",
"  <.;.<.<.            e.e.e.e.e.e.e.e.e.e.e.t t t t t t t t t t t t t t t t t t t t t t . e.e.e.e.e.e.G e.e.e.        . <.C <.  ",
"  <.s <.<.            e.e.e.e.e.e.. e.e.e.e.t t t t t t t t t t t t t t t t t t t t t t . e.e.e.e.e.e.u e.e.e.        . <.<.<.  ",
". <.<.<.<.            e.e.e.e.e.e.9.e.e.e.e.t t t t t t t t t t t t t t t t t t t t t t . e.e.e.e.w.e.w e.e.e.          <.<.<.. ",
". <.<.<.Z             r.e.e.e.e.e.e.e.e.e.e.= t t t t t t t t t t t t t t t t t t t t t . e.e.e.e.e.e.9 e.e.e.          <.<.<.. ",
". <.s <.o             e.e.e.e.e.e.. e.e.e.e.. t t t t t t t t t t t t t t t t t t t t t . e.e.e.e.e.e.; e.e.e.          <.<.,.. ",
". <.s <..             7.e.e.e.e.9.e.e.e.e.e.. t t t t t t t t t t t t t t t t t t t t t . e.e.e.e.w.e.* e.e.e.          z <.<.. ",
"@ <.v <..             T e.e.e.e.` e.e.e.e.e.. t t t t t t t t t t t t t t t t t t t t t . e.e.e.e.e.e.& e.e.e.          . <.<.$ ",
"8 <.<.<..             ; e.e.e.e.J e.e.e.e.e.. t t t t t t t t t t t t t t t t t t t t t . e.e.e.e.5.e.O e.e.e.          . <.A l ",
"l <.s <..             . e.e.e.e.; e.e.e.e.e.. t t t t t t t t t t t t t t t t t t t t t . e.e.e.e.4.e.O e.e.e.          . <.f l "
};
